HIERARCHY
ROOT Hips
{
	OFFSET 0.000000 103.266502 0.000000
	CHANNELS 6 Xposition Yposition Zposition Xrotation Yrotation Zrotation 
	JOINT Spine
	{
		OFFSET -0.002400 12.777504 0.315300
		CHANNELS 3 Xrotation Yrotation Zrotation
		JOINT Spine1
		{
			OFFSET -0.002067 5.816869 0.032633
			CHANNELS 3 Xrotation Yrotation Zrotation
			JOINT Spine1_split
			{
				OFFSET -0.002067 5.816869 0.032633
				CHANNELS 3 Xrotation Yrotation Zrotation
				JOINT Spine2
				{
					OFFSET -0.002067 5.816869 0.032633
					CHANNELS 3 Xrotation Yrotation Zrotation
					JOINT Neck
					{
						OFFSET -0.003700 21.199493 -0.826900
						CHANNELS 3 Xrotation Yrotation Zrotation
						JOINT Head
						{
							OFFSET 0.000000 20.442200 4.834800
							CHANNELS 3 Xrotation Yrotation Zrotation
							JOINT HeadTop_End
							{
								OFFSET 0.000000 34.668396 4.968400
								CHANNELS 3 Xrotation Yrotation Zrotation
								End Site
								{
									OFFSET 0.000000 0.000000 0.000000
								}
							}
						}
					}
					JOINT LeftShoulder
					{
						OFFSET 3.288150 8.794197 -1.372250
						CHANNELS 3 Xrotation Yrotation Zrotation
						JOINT LeftShoulder_split
						{
							OFFSET 3.288150 8.794197 -1.372250
							CHANNELS 3 Xrotation Yrotation Zrotation
							JOINT LeftArm
							{
								OFFSET 11.953299 -2.279007 -0.146200
								CHANNELS 3 Xrotation Yrotation Zrotation
								JOINT LeftForeArm
								{
									OFFSET 18.448900 0.000000 0.000000
									CHANNELS 3 Xrotation Yrotation Zrotation
									JOINT LeftHand
									{
										OFFSET 29.527798 0.000000 0.000000
										CHANNELS 3 Xrotation Yrotation Zrotation
										JOINT LeftHandThumb1
										{
											OFFSET 10.739754 -2.369614 9.225399
											CHANNELS 3 Xrotation Yrotation Zrotation
											JOINT LeftHandThumb2
											{
												OFFSET 4.926170 -2.844131 2.844125
												CHANNELS 3 Xrotation Yrotation Zrotation
												JOINT LeftHandThumb3
												{
													OFFSET 4.614891 -2.664413 2.664409
													CHANNELS 3 Xrotation Yrotation Zrotation
													JOINT LeftHandThumb4
													{
														OFFSET 4.432465 -2.559082 2.559083
														CHANNELS 3 Xrotation Yrotation Zrotation
														End Site
														{
															OFFSET 0.000000 0.000000 0.000000
														}
													}
												}
											}
										}
										JOINT LeftHandIndex1
										{
											OFFSET 26.467674 0.187653 6.405298
											CHANNELS 3 Xrotation Yrotation Zrotation
											JOINT LeftHandIndex2
											{
												OFFSET 8.792900 0.000000 0.000000
												CHANNELS 3 Xrotation Yrotation Zrotation
												JOINT LeftHandIndex3
												{
													OFFSET 10.075203 0.000000 0.000000
													CHANNELS 3 Xrotation Yrotation Zrotation
													End Site
													{
														OFFSET 0.000000 0.000000 0.000000
													}
												}
											}
										}
										JOINT LeftHandMiddle1
										{
											OFFSET 25.764404 0.000000 0.000000
											CHANNELS 3 Xrotation Yrotation Zrotation
											JOINT LeftHandMiddle2
											{
												OFFSET 9.393974 0.000000 0.000000
												CHANNELS 3 Xrotation Yrotation Zrotation
												JOINT LeftHandMiddle3
												{
													OFFSET 10.771950 0.000000 0.000000
													CHANNELS 3 Xrotation Yrotation Zrotation
													End Site
													{
														OFFSET 0.000000 0.000000 0.000000
													}
												}
											}
										}
										JOINT LeftHandRing1
										{
											OFFSET 24.660927 0.144547 -6.225808
											CHANNELS 3 Xrotation Yrotation Zrotation
											JOINT LeftHandRing2
											{
												OFFSET 9.393799 0.000000 0.000000
												CHANNELS 3 Xrotation Yrotation Zrotation
												JOINT LeftHandRing3
												{
													OFFSET 9.928497 0.000000 0.000000
													CHANNELS 3 Xrotation Yrotation Zrotation
													End Site
													{
														OFFSET 0.000000 0.000000 0.000000
													}
												}
											}
										}
										JOINT LeftHandPinky1
										{
											OFFSET 23.655350 0.125290 -12.815412
											CHANNELS 3 Xrotation Yrotation Zrotation
											JOINT LeftHandPinky2
											{
												OFFSET 8.425102 0.000000 0.000000
												CHANNELS 3 Xrotation Yrotation Zrotation
												JOINT LeftHandPinky3
												{
													OFFSET 8.147003 0.000000 0.000000
													CHANNELS 3 Xrotation Yrotation Zrotation
													End Site
													{
														OFFSET 0.000000 0.000000 0.000000
													}
												}
											}
										}
									}
								}
							}
						}
					}
					JOINT RightShoulder
					{
						OFFSET -3.249400 8.794197 -1.372250
						CHANNELS 3 Xrotation Yrotation Zrotation
						JOINT RightShoulder_split
						{
							OFFSET -3.249400 8.794197 -1.372250
							CHANNELS 3 Xrotation Yrotation Zrotation
							JOINT RightArm
							{
								OFFSET -11.953299 -2.279007 -0.146200
								CHANNELS 3 Xrotation Yrotation Zrotation
								JOINT RightForeArm
								{
									OFFSET -18.448900 0.000000 0.000000
									CHANNELS 3 Xrotation Yrotation Zrotation
									JOINT RightHand
									{
										OFFSET -29.527802 0.000000 0.000000
										CHANNELS 3 Xrotation Yrotation Zrotation
										JOINT RightHandThumb1
										{
											OFFSET -10.739754 -2.369614 9.225399
											CHANNELS 3 Xrotation Yrotation Zrotation
											JOINT RightHandThumb2
											{
												OFFSET -4.926170 -2.844131 2.844125
												CHANNELS 3 Xrotation Yrotation Zrotation
												JOINT RightHandThumb3
												{
													OFFSET -4.614891 -2.664413 2.664409
													CHANNELS 3 Xrotation Yrotation Zrotation
													JOINT RightHandThumb4
													{
														OFFSET -4.432465 -2.559082 2.559083
														CHANNELS 3 Xrotation Yrotation Zrotation
														End Site
														{
															OFFSET 0.000000 0.000000 0.000000
														}
													}
												}
											}
										}
										JOINT RightHandIndex1
										{
											OFFSET -26.467674 0.187653 6.405298
											CHANNELS 3 Xrotation Yrotation Zrotation
											JOINT RightHandIndex2
											{
												OFFSET -8.792900 0.000000 0.000000
												CHANNELS 3 Xrotation Yrotation Zrotation
												JOINT RightHandIndex3
												{
													OFFSET -10.075203 0.000000 0.000000
													CHANNELS 3 Xrotation Yrotation Zrotation
													End Site
													{
														OFFSET 0.000000 0.000000 0.000000
													}
												}
											}
										}
										JOINT RightHandMiddle1
										{
											OFFSET -25.764404 0.000000 0.000000
											CHANNELS 3 Xrotation Yrotation Zrotation
											JOINT RightHandMiddle2
											{
												OFFSET -9.393974 0.000000 0.000000
												CHANNELS 3 Xrotation Yrotation Zrotation
												JOINT RightHandMiddle3
												{
													OFFSET -10.771950 0.000000 0.000000
													CHANNELS 3 Xrotation Yrotation Zrotation
													End Site
													{
														OFFSET 0.000000 0.000000 0.000000
													}
												}
											}
										}
										JOINT RightHandRing1
										{
											OFFSET -24.660927 0.144547 -6.225808
											CHANNELS 3 Xrotation Yrotation Zrotation
											JOINT RightHandRing2
											{
												OFFSET -9.393799 0.000000 0.000000
												CHANNELS 3 Xrotation Yrotation Zrotation
												JOINT RightHandRing3
												{
													OFFSET -9.928497 0.000000 0.000000
													CHANNELS 3 Xrotation Yrotation Zrotation
													End Site
													{
														OFFSET 0.000000 0.000000 0.000000
													}
												}
											}
										}
										JOINT RightHandPinky1
										{
											OFFSET -23.655350 0.125290 -12.815412
											CHANNELS 3 Xrotation Yrotation Zrotation
											JOINT RightHandPinky2
											{
												OFFSET -8.425102 0.000000 0.000000
												CHANNELS 3 Xrotation Yrotation Zrotation
												JOINT RightHandPinky3
												{
													OFFSET -8.147003 0.000000 0.000000
													CHANNELS 3 Xrotation Yrotation Zrotation
													End Site
													{
														OFFSET 0.000000 0.000000 0.000000
													}
												}
											}
										}
									}
								}
							}
						}
					}
				}
			}
		}
	}
	JOINT LeftUpLeg
	{
		OFFSET 11.394100 -6.187798 -0.413800
		CHANNELS 3 Xrotation Yrotation Zrotation
		JOINT LeftLeg
		{
			OFFSET 0.430247 -32.302673 3.732800
			CHANNELS 3 Xrotation Yrotation Zrotation
			JOINT LeftFoot
			{
				OFFSET -0.430247 -48.264931 -6.423300
				CHANNELS 3 Xrotation Yrotation Zrotation
				JOINT LeftToeBase
				{
					OFFSET 4.230900 -16.068199 23.438400
					CHANNELS 3 Xrotation Yrotation Zrotation
					JOINT LeftToe_End
					{
						OFFSET 4.510700 0.695400 19.974600
						CHANNELS 3 Xrotation Yrotation Zrotation
						End Site
						{
							OFFSET 0.000000 0.000000 0.000000
						}
					}
				}
			}
		}
	}
	JOINT RightUpLeg
	{
		OFFSET -11.333700 -6.187798 -0.413800
		CHANNELS 3 Xrotation Yrotation Zrotation
		JOINT RightLeg
		{
			OFFSET -0.430392 -32.302628 3.733000
			CHANNELS 3 Xrotation Yrotation Zrotation
			JOINT RightFoot
			{
				OFFSET 0.430392 -48.264973 -6.423500
				CHANNELS 3 Xrotation Yrotation Zrotation
				JOINT RightToeBase
				{
					OFFSET -4.230900 -16.068199 23.438400
					CHANNELS 3 Xrotation Yrotation Zrotation
					JOINT RightToe_End
					{
						OFFSET -4.510700 0.695400 19.974600
						CHANNELS 3 Xrotation Yrotation Zrotation
						End Site
						{
							OFFSET 0.000000 0.000000 0.000000
						}
					}
				}
			}
		}
	}
}
MOTION
Frames: 6
Frame Time: 0.016667
-0.020497 97.118744 -0.293993 1.512635 -26.753499 0.750000 4.041533 -1.426723 0.656804 1.509780 -0.573491 0.095187 0.000000 0.000000 0.000000 1.512356 -0.565986 0.098706 -2.627946 4.190003 2.862242 16.708352 24.088503 -12.351910 -0.000002 -0.000000 -0.000000 -0.278006 3.012248 5.812623 0.000000 0.000000 0.000000 -51.694143 -1.278274 -53.239064 -0.000046 -85.822051 -0.000031 -13.673770 -20.175380 -8.459496 27.590954 19.106291 -21.055327 27.859554 42.153008 14.703678 8.091816 17.848664 9.739462 0.000001 0.000001 -0.000000 6.438756 6.867029 -86.304617 7.312865 6.867700 -93.605291 -0.000000 -0.000001 0.000002 6.436816 6.866896 -86.288409 7.314804 6.867575 -93.621526 0.000002 0.000000 0.000005 6.438752 6.867026 -86.304617 7.312865 6.867699 -93.605291 0.000001 0.000000 0.000003 10.514966 7.128938 -86.291032 7.312031 2.781442 -93.595284 0.000002 -0.000001 0.000001 -1.118780 -11.889987 10.257419 0.000000 0.000000 0.000000 -58.214720 66.009373 74.019962 0.000034 83.646772 -0.000114 -16.117242 15.251158 -32.686789 35.509597 -4.573179 10.809928 66.380819 -29.908019 29.548747 25.917433 -18.540861 10.281099 -0.000001 0.000001 0.000001 5.945865 -6.875904 81.685347 8.620181 -6.745009 103.956579 -0.000001 -0.000001 -0.000001 5.945860 -6.875902 81.685347 8.620182 -6.745013 103.956565 -0.000003 0.000002 0.000001 5.945864 -6.875901 81.685347 8.620184 -6.745011 103.956579 0.000001 0.000001 0.000001 5.945869 -6.875904 81.685347 8.620183 -6.745011 103.956579 0.000000 0.000001 -0.000000 -32.006987 24.965001 14.757696 26.810434 8.736181 10.471793 0.924575 0.284514 -11.039933 -0.000000 -0.000001 -0.000005 -0.000000 -0.000000 -0.000000 -22.552651 -16.080215 -9.523198 31.186234 -2.109963 -7.101402 -10.610841 -1.475521 10.487687 -0.000020 0.000009 0.000001 -0.000000 0.000002 -0.000000 
-0.024434 97.117287 -0.287881 1.528517 -26.752890 0.769039 4.028565 -1.432798 0.660662 1.504778 -0.576864 0.097090 0.000000 0.000000 0.000000 1.507367 -0.569391 0.100619 -2.626394 4.193301 2.853713 16.723305 24.085798 -12.361637 0.000003 -0.000000 -0.000000 -0.279650 3.035684 5.768247 0.000000 0.000000 0.000000 -51.680906 -1.342413 -53.222897 0.003540 -85.775852 0.003480 -13.811739 -20.364113 -8.525102 27.590957 19.106293 -21.055327 27.859549 42.153008 14.703685 8.091816 17.848667 9.739467 0.000001 -0.000001 0.000001 6.438757 6.867027 -86.304624 7.312865 6.867698 -93.605291 0.000001 -0.000001 0.000003 6.436818 6.866896 -86.288416 7.314803 6.867577 -93.621526 0.000000 -0.000000 0.000005 6.438756 6.867023 -86.304624 7.312865 6.867696 -93.605284 0.000000 -0.000003 -0.000001 10.514970 7.128937 -86.291032 7.312027 2.781441 -93.595284 0.000001 -0.000001 -0.000000 -1.120090 -11.901473 10.263994 0.000000 0.000000 0.000000 -58.262156 66.059500 74.030037 0.001205 83.625517 -0.001218 -16.127175 15.169010 -32.708827 35.509587 -4.573177 10.809928 66.380819 -29.908015 29.548751 25.917429 -18.540861 10.281092 0.000001 0.000001 0.000002 5.945866 -6.875903 81.685347 8.620180 -6.745014 103.956579 -0.000000 0.000001 -0.000000 5.945863 -6.875902 81.685347 8.620185 -6.745016 103.956565 -0.000001 -0.000003 -0.000002 5.945863 -6.875900 81.685347 8.620183 -6.745012 103.956579 0.000003 0.000001 0.000001 5.945869 -6.875906 81.685340 8.620181 -6.745016 103.956579 -0.000002 0.000000 -0.000003 -32.018066 24.990858 14.753649 26.811028 8.715270 10.471458 0.920068 0.285476 -11.037318 -0.000000 -0.000000 -0.000005 0.000000 0.000001 -0.000000 -22.588834 -16.158884 -9.529688 31.197241 -2.035954 -7.158165 -10.620143 -1.476270 10.490474 -0.000020 0.000009 0.000001 -0.000000 -0.000000 -0.000000 
-0.027962 97.115036 -0.281366 1.545211 -26.748952 0.784666 4.016083 -1.439461 0.664652 1.499959 -0.580350 0.099078 0.000000 0.000000 0.000000 1.502557 -0.572891 0.102617 -2.623185 4.196178 2.846582 16.734044 24.083208 -12.365510 0.000001 -0.000000 -0.000000 -0.280746 3.056238 5.722899 0.000000 0.000000 0.000000 -51.672806 -1.406305 -53.202840 0.001647 -85.730813 0.001613 -13.921672 -20.527418 -8.571532 27.590950 19.106290 -21.055325 27.859549 42.153004 14.703679 8.091816 17.848666 9.739464 0.000000 0.000000 0.000002 6.438754 6.867030 -86.304617 7.312865 6.867700 -93.605291 0.000001 -0.000003 -0.000000 6.436815 6.866894 -86.288409 7.314800 6.867576 -93.621526 -0.000000 -0.000000 0.000003 6.438752 6.867027 -86.304617 7.312865 6.867697 -93.605291 0.000001 -0.000000 -0.000002 10.514965 7.128937 -86.291025 7.312027 2.781439 -93.595284 -0.000000 0.000001 -0.000001 -1.121295 -11.910741 10.267823 0.000000 0.000000 0.000000 -58.301006 66.100529 74.036075 0.000072 83.610866 -0.000077 -16.139124 15.077354 -32.725571 35.509590 -4.573177 10.809931 66.380819 -29.908015 29.548751 25.917426 -18.540861 10.281095 0.000001 -0.000001 0.000000 5.945866 -6.875900 81.685347 8.620179 -6.745010 103.956579 0.000004 -0.000001 -0.000001 5.945862 -6.875899 81.685340 8.620188 -6.745018 103.956565 -0.000006 -0.000002 -0.000003 5.945863 -6.875897 81.685347 8.620185 -6.745010 103.956579 0.000002 0.000001 0.000002 5.945869 -6.875903 81.685340 8.620184 -6.745008 103.956579 0.000000 0.000003 0.000000 -32.039468 25.021636 14.757553 26.819323 8.682945 10.470940 0.912707 0.286518 -11.032075 -0.000000 -0.000001 -0.000005 -0.000000 0.000000 -0.000000 -22.625118 -16.243385 -9.533452 31.208535 -1.964336 -7.216348 -10.629786 -1.477048 10.494213 -0.000020 0.000010 0.000001 -0.000000 -0.000000 0.000000 
-0.031346 97.112206 -0.274545 1.562289 -26.742612 0.796958 4.004127 -1.446923 0.668984 1.495334 -0.584008 0.101199 0.000000 0.000000 0.000000 1.497948 -0.576593 0.104755 -2.617658 4.198874 2.840607 16.741159 24.081481 -12.364076 -0.000000 0.000000 0.000000 -0.281258 3.073346 5.677565 0.000000 0.000000 0.000000 -51.670863 -1.468559 -53.178750 -0.002385 -85.685331 -0.002458 -13.994018 -20.655523 -8.594060 27.590957 19.106291 -21.055327 27.859554 42.153001 14.703676 8.091814 17.848666 9.739466 -0.000001 -0.000001 0.000000 6.438756 6.867029 -86.304617 7.312865 6.867698 -93.605297 -0.000001 -0.000000 0.000001 6.436817 6.866896 -86.288409 7.314800 6.867576 -93.621526 -0.000001 -0.000001 0.000002 6.438754 6.867025 -86.304617 7.312865 6.867698 -93.605291 0.000000 0.000000 0.000000 10.514967 7.128939 -86.291025 7.312028 2.781442 -93.595284 -0.000001 0.000000 -0.000002 -1.122338 -11.917096 10.268321 0.000000 0.000000 0.000000 -58.331981 66.132733 74.039893 0.000170 83.601024 -0.000215 -16.154555 14.982344 -32.734764 35.509593 -4.573178 10.809925 66.380812 -29.908012 29.548751 25.917429 -18.540863 10.281095 -0.000001 -0.000002 0.000003 5.945865 -6.875904 81.685347 8.620180 -6.745012 103.956586 0.000001 -0.000002 -0.000002 5.945866 -6.875901 81.685340 8.620186 -6.745015 103.956558 0.000001 -0.000001 -0.000002 5.945862 -6.875901 81.685340 8.620181 -6.745012 103.956579 -0.000000 -0.000001 -0.000000 5.945869 -6.875909 81.685340 8.620187 -6.745014 103.956579 -0.000002 0.000002 0.000001 -32.070088 25.058654 14.769692 26.834094 8.638807 10.470232 0.902928 0.287681 -11.024335 -0.000000 -0.000001 -0.000005 0.000000 -0.000000 -0.000000 -22.660795 -16.333653 -9.534270 31.219067 -1.894991 -7.276113 -10.639080 -1.477856 10.498723 -0.000020 0.000009 0.000001 -0.000000 -0.000000 -0.000000 
-0.034698 97.109032 -0.267783 1.578824 -26.736268 0.807382 3.992697 -1.455335 0.673904 1.490911 -0.587998 0.103529 0.000000 0.000000 0.000000 1.493539 -0.580607 0.107103 -2.609243 4.201768 2.835403 16.745508 24.081507 -12.358258 0.000001 0.000000 -0.000000 -0.281201 3.086691 5.633044 0.000000 0.000000 0.000000 -51.676388 -1.528064 -53.150695 0.000732 -85.637506 0.000749 -14.020908 -20.738391 -8.589151 27.590950 19.106291 -21.055325 27.859546 42.153001 14.703678 8.091816 17.848667 9.739465 0.000001 -0.000001 0.000002 6.438754 6.867027 -86.304617 7.312865 6.867699 -93.605291 0.000000 0.000000 0.000005 6.436815 6.866892 -86.288409 7.314803 6.867576 -93.621533 -0.000001 0.000001 0.000001 6.438751 6.867025 -86.304617 7.312865 6.867698 -93.605284 0.000000 -0.000001 -0.000001 10.514965 7.128937 -86.291025 7.312027 2.781442 -93.595284 -0.000000 0.000002 0.000000 -1.123201 -11.919762 10.264622 0.000000 0.000000 0.000000 -58.356194 66.157035 74.043116 0.000311 83.594139 -0.000337 -16.174409 14.890157 -32.735089 35.509590 -4.573177 10.809926 66.380819 -29.908008 29.548751 25.917429 -18.540863 10.281094 -0.000000 -0.000002 0.000002 5.945864 -6.875897 81.685340 8.620181 -6.745010 103.956579 0.000001 -0.000004 -0.000002 5.945862 -6.875899 81.685340 8.620185 -6.745016 103.956558 0.000002 -0.000004 -0.000003 5.945863 -6.875894 81.685340 8.620185 -6.745009 103.956579 0.000000 0.000002 0.000001 5.945869 -6.875901 81.685340 8.620185 -6.745011 103.956579 0.000002 0.000001 -0.000002 -32.106971 25.106187 14.789086 26.852530 8.581807 10.469452 0.891495 0.289014 -11.013932 -0.000000 -0.000001 -0.000005 0.000000 -0.000000 -0.000000 -22.696210 -16.427081 -9.533328 31.229766 -1.827485 -7.337093 -10.648116 -1.478669 10.503460 -0.000020 0.000010 0.000001 -0.000000 0.000000 0.000000 
-0.038006 97.105782 -0.261530 1.593418 -26.732957 0.816243 3.981690 -1.464935 0.679587 1.486641 -0.592411 0.106144 0.000000 0.000000 0.000000 1.489282 -0.585010 0.109741 -2.597498 4.205261 2.830452 16.748251 24.084227 -12.349542 0.000000 -0.000000 0.000000 -0.280617 3.096283 5.589872 0.000000 0.000000 0.000000 -51.690598 -1.583853 -53.118856 0.000124 -85.585440 0.000076 -13.996590 -20.766272 -8.554903 27.590950 19.106293 -21.055329 27.859558 42.153001 14.703683 8.091817 17.848666 9.739465 -0.000002 -0.000001 -0.000000 6.438753 6.867031 -86.304617 7.312862 6.867699 -93.605291 -0.000000 -0.000000 -0.000001 6.436815 6.866896 -86.288416 7.314803 6.867578 -93.621526 0.000000 0.000002 0.000004 6.438751 6.867029 -86.304617 7.312865 6.867698 -93.605284 -0.000000 0.000002 0.000000 10.514965 7.128940 -86.291025 7.312029 2.781442 -93.595291 0.000001 0.000001 0.000001 -1.123876 -11.917866 10.255501 0.000000 0.000000 0.000000 -58.375810 66.174704 74.048055 0.000523 83.587800 -0.000547 -16.198779 14.806687 -32.726250 35.509597 -4.573177 10.809925 66.380812 -29.908008 29.548747 25.917435 -18.540861 10.281094 -0.000000 0.000000 -0.000004 5.945865 -6.875900 81.685340 8.620183 -6.745011 103.956579 0.000001 -0.000001 0.000001 5.945861 -6.875897 81.685340 8.620180 -6.745014 103.956565 0.000003 -0.000001 0.000001 5.945862 -6.875897 81.685340 8.620181 -6.745014 103.956579 0.000000 0.000001 -0.000000 5.945870 -6.875901 81.685340 8.620183 -6.745013 103.956586 0.000002 0.000000 0.000000 -32.148369 25.166839 14.816038 26.873828 8.512996 10.468713 0.878826 0.291891 -11.001005 -0.000000 -0.000001 -0.000005 0.000000 -0.000000 0.000000 -22.730501 -16.519552 -9.531138 31.240657 -1.761078 -7.397671 -10.656254 -1.479590 10.507601 -0.000020 0.000010 0.000001 -0.000000 0.000000 -0.000000 
